<svg xmlns="http://www.w3.org/2000/svg" xmlns:xlink="http://www.w3.org/1999/xlink" preserveAspectRatio="xMidYMid" width="10" height="10" viewBox="0 0 10 10">
  <defs>
    <style>
      .cls-2 {
        fill: #0a0a8a;
      }
    </style>
  </defs>
  <path d="M9.988,8.543 C9.988,8.543 8.543,9.988 8.543,9.988 C8.543,9.988 5.000,6.445 5.000,6.445 C5.000,6.445 1.457,9.988 1.457,9.988 C1.457,9.988 0.012,8.543 0.012,8.543 C0.012,8.543 3.554,5.000 3.554,5.000 C3.554,5.000 0.012,1.457 0.012,1.457 C0.012,1.457 1.457,0.012 1.457,0.012 C1.457,0.012 5.000,3.554 5.000,3.554 C5.000,3.554 8.543,0.012 8.543,0.012 C8.543,0.012 9.988,1.457 9.988,1.457 C9.988,1.457 6.445,5.000 6.445,5.000 C6.445,5.000 9.988,8.543 9.988,8.543 Z" id="path-1" class="cls-2" fill-rule="evenodd"/>
</svg>
